<svg version="1" xmlns="http://www.w3.org/2000/svg" width="682.667" height="682.667" viewBox="0 0 512.000000 512.000000"><path d="M233.2 1.1C145.1 8.9 66.8 62.6 26.8 142.5 7.1 181.7-2.3 228.9.8 272.3c3 42.5 14.5 79.3 36 115.7 19.7 33.1 54.1 67.5 87.2 87.2 45.7 27 97.6 39.7 148.2 36 9-.6 20.4-1.8 25.3-2.7 81.9-14.1 150.6-65 187.7-139 19.7-39.2 29.1-86.4 26-129.7-3.6-51.5-20.2-96.4-50.6-137.3-11.7-15.8-35.3-39.4-51.1-51.1C358.2 13.3 295.9-4.5 233.2 1.1zM339.3 133c4.9.6 17.5 3.3 28.1 6 15.6 4 19.9 4.7 22.9 4 5.2-1.1 8.5-3.5 10.4-7.5 1.5-3.1 2.1-3.5 5.4-3.5h3.7l.6 7.2c.3 4 1 20.1 1.6 35.8.6 15.7 1.2 30.6 1.5 33.2l.4 4.8h-8.6l-2.8-7.8c-11.5-32.5-32-52.2-59.3-57.2-10.1-1.8-27.5-1.4-36.5.9-38.7 10-62.8 46.9-65.4 100.6-1.6 33.9 6.4 62.5 23.4 83.4 11 13.7 24.2 22.6 40.8 27.7 8.2 2.5 10.4 2.8 25 2.8 14-.1 17.2-.4 25.6-2.6 17.3-4.7 33.7-13.8 48.3-26.8l6.9-6.1 3.3 3.2c2.5 2.4 3.1 3.6 2.4 4.9-1.9 3.5-18.8 18.6-26.5 23.6-22.9 14.9-42.2 20.6-69.5 20.5-37.5-.1-66.1-11.6-89.3-36-15.8-16.6-25.9-36.6-30.4-60.4-2.4-12.6-2.4-39.8 0-52 5.2-25.9 16.1-46.9 33.9-64.9 13.5-13.6 29.3-23.1 47.3-28.6 18.6-5.7 37.5-7.4 56.8-5.2zM146 189v23h36v13h-36v56.5c0 36.4.4 58.2 1.1 61.4 2.1 10 8 15.2 17.1 15.2 6.9 0 9.9-1.2 16.4-6.7 5.4-4.6 7.8-5.1 9-1.9.9 2.2-9 14-15.8 19.1-9 6.6-15.6 8.8-26.3 8.8-12.8-.1-20.3-4-26-13.8-5.6-9.6-5.8-11.9-6.2-77.9l-.4-60.7h-10c-9.8 0-9.9 0-9.9-2.4 0-1.8 1.9-4.1 6.8-8.3 10.9-9.4 16.8-15.9 29.5-32.6 6.6-8.6 12.6-15.7 13.4-15.7 1 0 1.3 4.4 1.3 23z"/></svg>